<?xml version="1.0" encoding="utf-8"?>
<!-- Generator: Adobe Illustrator 25.4.1, SVG Export Plug-In . SVG Version: 6.00 Build 0)  -->
<svg version="1.1" id="Calque_1" xmlns="http://www.w3.org/2000/svg" xmlns:xlink="http://www.w3.org/1999/xlink" x="0px" y="0px"
	 viewBox="0 0 432 432" style="enable-background:new 0 0 432 432;" xml:space="preserve">
<style type="text/css">
	.st0{display:none;}
	.st1{display:inline;fill:#4A249D;}
	.st2{fill:#FFFFFF;}
	.st3{fill:#4A249D;}
</style>
<g class="st0">
	<path class="st1" d="M294.5,468.5c1.5,0,3.1,0.2,4.6,0.6s2.9,1.1,4.2,2s2.3,2.1,3,3.6c0.8,1.4,1.3,3.1,1.4,5.1l1.8,40.4h3.1
		l1.8-40.4c0.1-3.6,1.3-6.4,3.5-8.4c2.2-2,5.5-2.9,9.8-2.9c5.2,0,9.1,1.4,11.6,4.2c2.5,2.8,3.4,6.6,2.5,11.5l-8.1,48
		c-0.8,4.4-2.4,7.3-5,8.8c-2.5,1.5-6,2.2-10.4,2.2h-7.3c-4.5,0-7.9-1.2-10.2-3.6c-2.2-2.4-3.5-6.2-4.1-11.3l-0.9-8.6H293l-0.9,8.8
		c-0.6,5.3-1.8,9.1-3.7,11.3c-1.8,2.2-4.9,3.4-9.2,3.4h-8.7c-4.4,0-7.9-0.7-10.5-2.2c-2.5-1.5-4.2-4.4-4.9-8.8l-8.1-48
		c-0.8-4.9,0-8.7,2.5-11.5c2.5-2.8,6.4-4.2,11.6-4.2c4.3,0,7.6,1,9.7,2.9c2.2,2,3.4,4.7,3.6,8.4l1.8,40.4h3.1l1.8-40.4
		c0.1-2,0.5-3.7,1.4-5.1c0.8-1.5,1.9-2.7,3.1-3.6c1.3-0.9,2.7-1.6,4.2-2C291.4,468.7,293,468.5,294.5,468.5z"/>
	<path class="st1" d="M183.4,505.9c0-6.9,0.6-12.7,1.7-17.5c1.1-4.8,2.9-8.7,5.3-11.7c2.4-3,5.6-5.2,9.5-6.5c3.9-1.3,8.7-2,14.3-2
		c5.6,0,10.3,0.7,14.1,2c3.9,1.3,7.1,3.5,9.5,6.5c2.4,2.9,4.2,6.8,5.2,11.6c1.1,4.8,1.7,10.7,1.7,17.6c0,6.9-0.6,12.8-1.7,17.6
		c-1,4.8-2.8,8.7-5.2,11.7c-2.4,2.9-5.6,5.1-9.5,6.4c-3.8,1.3-8.6,2-14.1,2c-5.7,0-10.4-0.7-14.3-2c-3.9-1.4-7.1-3.6-9.5-6.5
		c-2.4-3-4.2-6.9-5.3-11.6C183.9,518.7,183.4,512.9,183.4,505.9z M210.7,515.4c0,3.6,1.2,5.3,3.6,5.3c2.3,0,3.5-1.7,3.5-5.2
		l-0.2-20.1c0-3.1-1.2-4.7-3.5-4.7c-1.3,0-2.3,0.5-2.8,1.5c-0.5,1-0.7,2.3-0.7,4L210.7,515.4z"/>
	<path class="st1" d="M154,542.6c-4.1-0.1-7.2-1.2-9.2-3c-2-1.9-3-5-3-9.3v-48.6c0-8.9,4.5-13.4,13.4-13.4c8.9,0,13.3,4.5,13.3,13.4
		v36.2h2.9c8.2,0,12.4,4.1,12.4,12.4c0,8.2-4.1,12.4-12.4,12.4H154z"/>
	<path class="st1" d="M121,494.1v5.4h6.8c4.4,0,6.6,2.2,6.6,6.6c0,4.4-2.2,6.6-6.6,6.6H121v17.5c0,8.9-4.4,13.4-13.3,13.4
		c-8.9,0-13.4-4.5-13.4-13.4v-45.6c0-2.2,0.3-4.2,0.8-6.1c0.6-1.9,1.4-3.5,2.5-4.9c1.1-1.4,2.5-2.5,4.2-3.2c1.7-0.8,3.8-1.2,6.1-1.2
		h18c8.2,0,12.4,4.1,12.4,12.4c0,8.3-4.1,12.5-12.4,12.5H121z"/>
</g>
<text transform="matrix(1 0 0 1 -169 644)" style="display:none;stroke:#000000;stroke-width:4;stroke-miterlimit:10; font-family:'MyriadPro-Regular'; font-size:99px;">ROOM</text>
<g>
	<path class="st2" d="M93.8,0h244.4C390,0,432,42,432,93.8v244.4c0,51.8-42,93.8-93.8,93.8H93.8C42,432,0,390,0,338.2V93.8
		C0,42,42,0,93.8,0z"/>
	<g>
		<path class="st3" d="M269.5,103.4c0-23.8,11.9-35.7,35.7-35.7c23.6,0,35.5,11.9,35.5,35.7V233c0,23.8-11.8,35.7-35.5,35.7
			c-23.8,0-35.7-11.9-35.7-35.7V103.4z"/>
		<path class="st3" d="M91.6,103.4c0-23.8,11.9-35.7,35.7-35.7c23.6,0,35.5,11.9,35.5,35.7v94.1c0,8,3.4,12,10.1,12
			c6.7,0,10.1-4.1,10.1-12.3v-93.8c0-23.8,11.9-35.7,35.7-35.7c23.6,0,35.5,11.9,35.5,35.7v93.3c0,12.5-1.4,23.3-4.2,32.4
			c-2.8,8.9-7.4,16.4-14,22.3c-6.3,5.8-14.7,10.1-25.1,13.1c-10.2,2.8-22.9,4.2-38,4.2c-14.5,0-27-1.3-37.4-3.9
			c-10.2-2.8-18.6-7.1-25.1-12.8c-6.5-5.8-11.3-13.2-14.2-22.3c-3-9.1-4.5-20.1-4.5-33V103.4z"/>
	</g>
	<g>
		<polygon class="st3" points="342.5,305.4 341.5,301.7 339.3,297.5 337.5,295.3 334.8,293 331.9,291.4 328.7,290.3 324.1,289.5 
			317.5,289.5 314,290 309.8,291.4 306.6,293.2 304.7,295.1 303.1,297.2 302,295.9 300.2,294 297.2,291.9 293,290.3 288.2,289.5 
			281.5,289.5 279.1,289.8 274.9,290.8 270.6,293 268.5,294.8 266.1,297.5 264.5,300.4 263.1,304.1 262.3,309.2 262.3,357 
			263.4,360.4 265,362.8 266.3,363.9 268.5,364.9 271.7,365.7 277,365.7 279.4,365.2 282.3,363.9 284.2,362 285.5,359.6 
			286.3,356.2 286.6,313.1 287.4,312.3 289.8,312.3 290.6,313.7 290.8,357.2 291.1,358.3 292.2,360.9 294,363.3 296.7,364.9 
			300.2,365.7 305.5,365.7 307.1,365.5 310.3,364.1 312.4,362.3 314,359.6 314.8,355.9 315.1,313.1 315.9,312.3 318.3,312.3 
			319.1,313.1 319.4,356.4 319.9,359.1 321.2,361.7 323.1,363.6 325.5,364.9 328.7,365.7 333.7,365.7 335.3,365.5 337.7,364.7 
			340.4,362.8 342,360.4 343.1,357 343.1,308.9 		"/>
		<path class="st3" d="M257.8,306.5l-1.1-3.5l-1.9-3.7l-2.7-3.5l-2.9-2.4l-3.5-1.9l-4-1.3l-5.1-0.8h-9.1L224,290l-4,1.1l-4,1.9
			l-3.2,2.4l-1.6,1.9l-2.1,2.9l-1.6,3.7l-1.1,4l-0.5,4.8v30l0.3,3.2l0.5,2.9l1.1,3.5l1.9,3.7l2.4,3.2l1.3,1.1l2.4,1.9l4.3,2.1l4,1.1
			l4,0.5h8.5l4-0.5l4-1.1l4-1.9l3.2-2.4l1.6-1.9l2.1-2.9l1.6-3.7l1.1-4l0.5-4.5v-30.5l-0.3-2.9L257.8,306.5z M234.4,342.1l-1.1,1.1
			h-2.4l-0.8-0.8l-0.3-1.1v-27.4l0.5-1.3l0.5-0.5h2.4l1.1,1.1V342.1z"/>
		<path class="st3" d="M201.9,306.8l-1.3-4.2l-2.1-4l-2.1-2.4l-2.7-2.4l-3.7-2.1l-4-1.3l-5.1-0.8h-9.1l-5.1,0.8l-3.5,1.1l-4,2.1
			l-2.9,2.4l-2.4,2.9l-1.9,3.5l-1.3,4l-0.8,5.3v32.1l0.8,5l1.1,3.5l2.1,4.2l2.4,2.9l2.9,2.4l3.5,1.9l4,1.3l5.1,0.8h8.8l2.4-0.3
			l3.7-0.8l4.3-1.6l3.5-2.1l2.7-2.7l1.9-2.4l2.1-4.5l1.1-4.2l0.5-5v-28.9l-0.3-3.2L201.9,306.8z M178.4,342.1l-1.1,1.1H175l-1.1-1.3
			v-28.4l1.1-1.3h2.4l1.1,1.1V342.1z"/>
		<path class="st3" d="M145.4,302.5l-1.6-3.2l-1.9-2.4l-3.2-2.9l-3.2-1.6l-4-1.3l-4.8-0.8h-24l-3.2,1.1l-2.4,1.6l-1.9,2.7l-1.1,4.2
			v55.5l0.5,2.7l1.1,2.4l1.6,1.9l2.1,1.6l3.5,1.1h6.7l3.5-1.1l2.1-1.6l1.9-2.4l1.1-3.5l0.3-14.1l0.5-1.1l1.3-0.5l1.6,0.3l0.5,0.8
			l0.3,13.5l0.3,1.9l0.8,2.4l1.3,1.9l1.3,1.3l1.6,1.1l3.5,1.1h6.7l2.1-0.5l2.7-1.3l1.9-1.9l1.6-3.2l0.5-3.2V345l-0.3-2.9l-0.5-2.4
			l-1.6-3.2l-2.4-2.1l-2.9-1.6v-1.1l1.9-1.1l2.4-1.9l1.9-2.7l1.1-3.7l0.5-5V311l-0.5-4.5L145.4,302.5z M122.8,323l-1.1,1.1h-2.1
			l-1.1-0.8l-0.3-0.8v-8.2l0.5-1.1l1.1-0.5l2.1,0.3l0.8,1.1V323z"/>
	</g>
</g>
</svg>
