<svg width="432" height="432" viewBox="0 0 432 432" fill="none" xmlns="http://www.w3.org/2000/svg">
<rect width="432" height="432" rx="93.8182" fill="white"/>
<path d="M269.487 103.383C269.487 79.552 281.403 67.6364 305.234 67.6364C328.879 67.6364 340.702 79.552 340.702 103.383V232.966C340.702 256.797 328.879 268.713 305.234 268.713C281.403 268.713 269.487 256.797 269.487 232.966V103.383Z" fill="#4A249D"/>
<path d="M91.6364 103.383C91.6364 79.552 103.552 67.6364 127.383 67.6364C151.028 67.6364 162.851 79.552 162.851 103.383V197.498C162.851 205.504 166.202 209.507 172.905 209.507C179.607 209.507 182.959 205.411 182.959 197.219V103.383C182.959 79.552 194.874 67.6364 218.705 67.6364C242.351 67.6364 254.173 79.552 254.173 103.383V196.66C254.173 209.135 252.777 219.933 249.984 229.056C247.191 237.993 242.537 245.44 236.02 251.398C229.69 257.169 221.312 261.545 210.886 264.524C200.646 267.316 187.985 268.713 172.905 268.713C158.383 268.713 145.908 267.409 135.482 264.803C125.242 262.01 116.864 257.728 110.348 251.956C103.831 246.185 99.0836 238.737 96.1047 229.615C93.1258 220.492 91.6364 209.507 91.6364 196.66V103.383Z" fill="#4A249D"/>
<path d="M294.539 289.955C296.075 289.955 297.611 290.164 299.147 290.583C300.683 291.002 302.079 291.665 303.336 292.573C304.593 293.481 305.605 294.668 306.373 296.134C307.211 297.53 307.665 299.241 307.735 301.265L309.515 341.69H312.657L314.437 301.265C314.577 297.635 315.729 294.842 317.893 292.887C320.127 290.932 323.409 289.955 327.738 289.955C332.974 289.955 336.849 291.351 339.362 294.144C341.876 296.937 342.714 300.777 341.876 305.664L333.812 353.629C333.044 358.028 331.368 360.96 328.785 362.426C326.271 363.892 322.815 364.626 318.417 364.626H311.086C306.548 364.626 303.162 363.439 300.927 361.065C298.763 358.621 297.401 354.851 296.843 349.754L295.9 341.167H292.968L292.025 349.964C291.467 355.27 290.245 359.04 288.36 361.274C286.545 363.508 283.473 364.626 279.144 364.626H270.452C266.053 364.626 262.562 363.892 259.979 362.426C257.466 360.96 255.825 358.028 255.057 353.629L246.993 305.664C246.155 300.777 246.993 296.937 249.506 294.144C252.02 291.351 255.895 289.955 261.131 289.955C265.46 289.955 268.706 290.932 270.871 292.887C273.105 294.842 274.292 297.635 274.431 301.265L276.212 341.69H279.354L281.134 301.265C281.204 299.241 281.658 297.53 282.495 296.134C283.333 294.668 284.38 293.481 285.637 292.573C286.894 291.665 288.29 291.002 289.826 290.583C291.432 290.164 293.003 289.955 294.539 289.955Z" fill="#4A249D"/>
<path d="M183.384 327.447C183.384 320.535 183.943 314.705 185.06 309.958C186.177 305.14 187.957 301.23 190.401 298.228C192.844 295.226 196.021 293.062 199.931 291.735C203.841 290.409 208.623 289.745 214.279 289.745C219.864 289.745 224.577 290.409 228.417 291.735C232.327 293.062 235.503 295.226 237.947 298.228C240.391 301.161 242.136 305.035 243.183 309.853C244.3 314.67 244.859 320.535 244.859 327.447C244.859 334.359 244.3 340.224 243.183 345.041C242.136 349.859 240.391 353.769 237.947 356.771C235.503 359.703 232.327 361.833 228.417 363.159C224.577 364.486 219.864 365.149 214.279 365.149C208.623 365.149 203.841 364.486 199.931 363.159C196.021 361.763 192.844 359.598 190.401 356.666C187.957 353.664 186.177 349.789 185.06 345.041C183.943 340.224 183.384 334.359 183.384 327.447ZM210.718 336.873C210.718 340.433 211.905 342.214 214.279 342.214C216.583 342.214 217.735 340.468 217.735 336.977L217.525 316.87C217.525 313.728 216.373 312.157 214.069 312.157C212.743 312.157 211.8 312.646 211.241 313.623C210.753 314.601 210.508 315.927 210.508 317.603L210.718 336.873Z" fill="#4A249D"/>
<path d="M154.049 364.102C149.93 363.962 146.858 362.95 144.833 361.065C142.808 359.179 141.796 356.073 141.796 351.744V303.15C141.796 294.214 146.264 289.745 155.201 289.745C164.068 289.745 168.501 294.214 168.501 303.15V339.386H171.434C179.672 339.386 183.792 343.505 183.792 351.744C183.792 359.982 179.672 364.102 171.434 364.102H154.049Z" fill="#4A249D"/>
<path d="M121.047 315.613V321.059H127.854C132.253 321.059 134.452 323.258 134.452 327.657C134.452 332.055 132.253 334.255 127.854 334.255H121.047V351.744C121.047 360.681 116.613 365.149 107.746 365.149C98.8097 365.149 94.3413 360.681 94.3413 351.744V306.188C94.3413 304.023 94.6206 301.999 95.1791 300.114C95.7377 298.228 96.5755 296.588 97.6926 295.191C98.8097 293.795 100.206 292.713 101.882 291.945C103.627 291.177 105.652 290.793 107.956 290.793H125.969C134.207 290.793 138.327 294.912 138.327 303.151C138.327 311.459 134.207 315.613 125.969 315.613H121.047Z" fill="#4A249D"/>
</svg>
