<svg width="1585" height="343" viewBox="0 0 1585 343" fill="none" xmlns="http://www.w3.org/2000/svg">
<path d="M0.9 60.968C0.9 20.3493 21.2093 0.0399818 61.828 0.0399818C102.129 0.0399818 122.28 20.3493 122.28 60.968V221.38C122.28 235.025 127.992 241.848 139.416 241.848C150.84 241.848 156.552 234.867 156.552 220.904V60.968C156.552 20.3493 176.861 0.0399818 217.48 0.0399818C257.781 0.0399818 277.932 20.3493 277.932 60.968V219.952C277.932 241.213 275.552 259.619 270.792 275.168C266.032 290.4 258.099 303.093 246.992 313.248C236.203 323.085 221.923 330.543 204.152 335.62C186.699 340.38 165.12 342.76 139.416 342.76C114.664 342.76 93.4027 340.539 75.632 336.096C58.1787 331.336 43.8987 324.037 32.792 314.2C21.6853 304.363 13.5933 291.669 8.516 276.12C3.43867 260.571 0.9 241.848 0.9 219.952V60.968ZM304.034 60.968C304.034 20.3493 324.343 0.0399818 364.962 0.0399818C405.263 0.0399818 425.414 20.3493 425.414 60.968V281.832C425.414 322.451 405.263 342.76 364.962 342.76C324.343 342.76 304.034 322.451 304.034 281.832V60.968ZM575.558 117.612V142.364H606.498C626.49 142.364 636.486 152.36 636.486 172.352C636.486 192.344 626.49 202.34 606.498 202.34H575.558V281.832C575.558 322.451 555.408 342.76 515.106 342.76C474.488 342.76 454.178 322.451 454.178 281.832V74.772C454.178 64.9346 455.448 55.732 457.986 47.164C460.525 38.596 464.333 31.1387 469.41 24.792C474.488 18.4453 480.834 13.5267 488.45 10.036C496.384 6.54532 505.586 4.79998 516.058 4.79998H597.93C635.376 4.79998 654.098 23.5226 654.098 60.968C654.098 98.7307 635.376 117.612 597.93 117.612H575.558ZM725.558 338C706.835 337.365 692.873 332.764 683.67 324.196C674.467 315.628 669.866 301.507 669.866 281.832V60.968C669.866 20.3493 690.175 0.0399818 730.794 0.0399818C771.095 0.0399818 791.246 20.3493 791.246 60.968V225.664H804.574C842.019 225.664 860.742 244.387 860.742 281.832C860.742 319.277 842.019 338 804.574 338H725.558ZM858.89 171.4C858.89 139.984 861.429 113.487 866.506 91.908C871.583 70.012 879.675 52.2413 890.782 38.596C901.889 24.9506 916.327 15.1133 934.098 9.08398C951.869 3.05465 973.606 0.0399818 999.31 0.0399818C1024.7 0.0399818 1046.12 3.05465 1063.57 9.08398C1081.34 15.1133 1095.78 24.9506 1106.89 38.596C1117.99 51.924 1125.93 69.536 1130.69 91.432C1135.76 113.328 1138.3 139.984 1138.3 171.4C1138.3 202.816 1135.76 229.472 1130.69 251.368C1125.93 273.264 1117.99 291.035 1106.89 304.68C1095.78 318.008 1081.34 327.687 1063.57 333.716C1046.12 339.745 1024.7 342.76 999.31 342.76C973.606 342.76 951.869 339.745 934.098 333.716C916.327 327.369 901.889 317.532 890.782 304.204C879.675 290.559 871.583 272.947 866.506 251.368C861.429 229.472 858.89 202.816 858.89 171.4ZM983.126 214.24C983.126 230.424 988.521 238.516 999.31 238.516C1009.78 238.516 1015.02 230.583 1015.02 214.716L1014.07 123.324C1014.07 109.044 1008.83 101.904 998.358 101.904C992.329 101.904 988.045 104.125 985.506 108.568C983.285 113.011 982.174 119.04 982.174 126.656L983.126 214.24ZM1364.1 0.991998C1371.09 0.991998 1378.07 1.944 1385.05 3.84799C1392.03 5.75198 1398.38 8.76665 1404.09 12.892C1409.8 17.0173 1414.4 22.412 1417.89 29.076C1421.7 35.4227 1423.76 43.1973 1424.08 52.4L1432.17 236.136H1446.45L1454.54 52.4C1455.18 35.8987 1460.42 23.2053 1470.25 14.32C1480.41 5.43466 1495.32 0.991998 1515 0.991998C1538.8 0.991998 1556.41 7.33866 1567.83 20.032C1579.26 32.7253 1583.06 50.1787 1579.26 72.392L1542.6 290.4C1539.11 310.392 1531.5 323.72 1519.76 330.384C1508.33 337.048 1492.62 340.38 1472.63 340.38H1439.31C1418.69 340.38 1403.3 334.985 1393.14 324.196C1383.3 313.089 1377.12 295.953 1374.58 272.788L1370.29 233.756H1356.96L1352.68 273.74C1350.14 297.857 1344.59 314.993 1336.02 325.148C1327.77 335.303 1313.81 340.38 1294.13 340.38H1254.62C1234.63 340.38 1218.77 337.048 1207.02 330.384C1195.6 323.72 1188.14 310.392 1184.65 290.4L1148 72.392C1144.19 50.1787 1148 32.7253 1159.42 20.032C1170.85 7.33866 1188.46 0.991998 1212.26 0.991998C1231.94 0.991998 1246.69 5.43466 1256.53 14.32C1266.68 23.2053 1272.08 35.8987 1272.71 52.4L1280.8 236.136H1295.08L1303.18 52.4C1303.49 43.1973 1305.56 35.4227 1309.36 29.076C1313.17 22.412 1317.93 17.0173 1323.64 12.892C1329.36 8.76665 1335.7 5.75198 1342.68 3.84799C1349.98 1.944 1357.12 0.991998 1364.1 0.991998Z" fill="white"/>
</svg>
