<?xml version="1.0" encoding="utf-8"?>
<!-- Generator: Adobe Illustrator 25.4.1, SVG Export Plug-In . SVG Version: 6.00 Build 0)  -->
<svg version="1.1" id="Calque_1" xmlns="http://www.w3.org/2000/svg" xmlns:xlink="http://www.w3.org/1999/xlink" x="0px" y="0px"
	 viewBox="0 0 1585 343" style="enable-background:new 0 0 1585 343;" xml:space="preserve">
<style type="text/css">
	.st0{fill:#FFFFFF;}
</style>
<g>
	<path class="st0" d="M0.9,61C0.9,20.3,21.2,0,61.8,0c40.3,0,60.5,20.3,60.5,60.9v160.4c0,13.6,5.7,20.5,17.1,20.5s17.1-7,17.1-20.9
		V61c0-40.6,20.3-60.9,60.9-60.9c40.3,0,60.5,20.3,60.5,60.9v159c0,21.3-2.4,39.7-7.1,55.2c-4.8,15.2-12.7,27.9-23.8,38.1
		c-10.8,9.8-25.1,17.3-42.8,22.4c-17.5,4.8-39,7.1-64.7,7.1c-24.8,0-46-2.2-63.8-6.7c-17.5-4.8-31.7-12.1-42.8-21.9
		c-11.1-9.8-19.2-22.5-24.3-38.1c-5.1-15.5-7.6-34.3-7.6-56.2V61z M304,61C304,20.3,324.3,0,365,0c40.3,0,60.5,20.3,60.5,60.9v220.9
		c0,40.6-20.2,60.9-60.5,60.9c-40.6,0-60.9-20.3-60.9-60.9V61z"/>
	<g>
		<polygon class="st0" points="1578.4,69.5 1573.6,52.6 1563.8,33.3 1555.3,23.7 1543.1,12.8 1529.7,5.6 1515.1,0.8 1494.4,-2.8 
			1463.9,-2.8 1448.1,-0.4 1428.6,5.6 1414,14 1405.4,22.5 1398.1,32.1 1393.2,26.1 1384.7,17.7 1371.3,8 1351.8,0.8 1329.9,-2.8 
			1299.4,-2.8 1288.5,-1.6 1269,3.2 1249.5,12.8 1239.7,21.3 1228.7,33.3 1221.4,46.6 1215.3,63.5 1211.7,86.3 1211.7,303.2 
			1216.6,318.9 1223.9,329.7 1230,334.6 1239.7,339.4 1254.3,343 1278.7,343 1289.7,340.6 1303.1,334.6 1311.6,326.1 1317.7,315.3 
			1321.4,299.6 1322.6,104.4 1326.2,100.8 1337.2,100.8 1340.8,106.8 1342.1,304.4 1343.3,309.3 1348.2,321.3 1356.7,332.2 
			1368.9,339.4 1384.7,343 1409.1,343 1416.4,341.8 1431,335.8 1440.8,327.3 1448.1,315.3 1451.7,298.4 1452.9,104.4 1456.6,100.8 
			1467.6,100.8 1471.2,104.4 1472.4,300.8 1474.9,312.9 1481,324.9 1489.5,333.4 1500.5,339.4 1515.1,343 1538.2,343 1545.5,341.8 
			1556.5,338.2 1568.7,329.7 1576,318.9 1580.9,303.2 1580.9,85.1 		"/>
		<path class="st0" d="M1191,74.3l-4.9-15.7l-8.5-16.9l-12.2-15.7L1152,15.3l-15.8-8.4l-18.3-6l-23.2-3.6h-41.4l-17.1,2.4L1018,4.4
			l-18.3,8.4l-14.6,10.8l-7.3,8.4L968,45.4l-7.3,16.9l-4.9,18.1l-2.4,21.7v136.2l1.2,14.5l2.4,13.3l4.9,15.7l8.5,16.9l11,14.5
			l6.1,4.8l11,8.4l19.5,9.6l18.3,4.8l18.3,2.4h39l18.3-2.4l18.3-4.8l18.3-8.4l14.6-10.8l7.3-8.4l9.7-13.3l7.3-16.9l4.9-18.1
			l2.4-20.5V100.8l-1.2-13.3L1191,74.3z M1083.8,235.8l-4.9,4.8h-11l-3.7-3.6l-1.2-4.8V108l2.4-6l2.4-2.4h11l4.9,4.8V235.8z"/>
		<path class="st0" d="M935.1,75.5L929,56.2l-9.7-18.1l-9.7-10.8l-12.2-10.8l-17.1-9.6l-18.3-6l-23.2-3.6h-41.4l-23.2,3.6l-15.8,4.8
			l-18.3,9.6l-13.4,10.8l-11,13.3L707.2,55l-6.1,18.1l-3.7,24.1V243l3.7,22.9l4.9,15.7l9.7,19.3l11,13.3l13.4,10.8l15.8,8.4l18.3,6
			l23.2,3.6h40.2l11-1.2l17.1-3.6l19.5-7.2l15.8-9.6l12.2-12l8.5-10.8l9.7-20.5l4.9-19.3l2.4-22.9V104.4L937.5,90L935.1,75.5z
			 M827.9,235.8l-4.9,4.8h-11l-4.9-6V105.6l4.9-6h11l4.9,4.8V235.8z"/>
		<path class="st0" d="M676.8,56.2l-7.3-14.5l-8.5-10.8l-14.6-13.3l-14.6-7.2l-18.3-6l-21.9-3.6H481.8l-14.6,4.8l-11,7.2l-8.5,12
			l-4.9,19.3V296l2.4,12l4.9,10.8l7.3,8.4l9.7,7.2l15.8,4.8h30.5l15.8-4.8l9.7-7.2l8.5-10.8l4.9-15.7l1.2-63.9l2.4-4.8l6.1-2.4
			l7.3,1.2l2.4,3.6l1.2,61.5l1.2,8.4l3.7,10.8l6.1,8.4l6.1,6l7.3,4.8l15.8,4.8h30.5l9.7-2.4l12.2-6l8.5-8.4l7.3-14.5l2.4-14.5V249
			l-1.2-13.3l-2.4-10.8l-7.3-14.5l-11-9.6l-13.4-7.2v-4.8l8.5-4.8l11-8.4l8.5-12l4.9-16.9l2.4-22.9V94.8l-2.4-20.5L676.8,56.2z
			 M573.2,149l-4.9,4.8h-9.7l-4.9-3.6l-1.2-3.6v-37.4l2.4-4.8l4.9-2.4l9.7,1.2l3.7,4.8V149z"/>
	</g>
</g>
</svg>
